<?xml version="1.0" encoding="utf-8"?>
<!-- Generator: Adobe Illustrator 18.0.0, SVG Export Plug-In . SVG Version: 6.00 Build 0)  -->
<!DOCTYPE svg PUBLIC "-//W3C//DTD SVG 1.1//EN" "http://www.w3.org/Graphics/SVG/1.1/DTD/svg11.dtd">
<svg version="1.1" id="Layer_1" xmlns="http://www.w3.org/2000/svg" xmlns:xlink="http://www.w3.org/1999/xlink" x="0px" y="0px"
	 viewBox="0 0 100 51.5" enable-background="new 0 0 100 51.5" xml:space="preserve">
<path fill-rule="evenodd" clip-rule="evenodd" fill="#FFFFFF" d="M99.7,27c0.2-0.2,0.2-0.3,0.2-0.4c0-0.1,0-0.2,0.1-0.3
	c0.1-0.5,0.1-0.8,0.1-1.1c-0.1-0.3-0.1-0.4-0.1-0.5c0-0.1-0.1-0.1-0.1-0.2c-0.2-0.2-0.3-0.4-0.4-0.5L76,0.7c-0.9-0.9-2.4-0.9-3.3,0
	c-0.9,0.9-0.9,2.4,0,3.3L92,23.4H2.4c-1.3,0-2.4,1-2.4,2.4c0,0.7,0.3,1.3,0.7,1.7c0.4,0.4,1,0.7,1.7,0.7l89.6,0L72.7,47.4
	c-0.9,0.9-0.9,2.4,0,3.3c0.9,0.9,2.4,0.9,3.3,0l23.4-23.4C99.5,27.3,99.5,27.2,99.7,27"/>
</svg>
