<?xml version="1.0" encoding="utf-8"?>
<!-- Generator: Adobe Illustrator 18.0.0, SVG Export Plug-In . SVG Version: 6.00 Build 0)  -->
<!DOCTYPE svg PUBLIC "-//W3C//DTD SVG 1.1//EN" "http://www.w3.org/Graphics/SVG/1.1/DTD/svg11.dtd">
<svg version="1.1" id="Layer_1" xmlns="http://www.w3.org/2000/svg" xmlns:xlink="http://www.w3.org/1999/xlink" x="0px" y="0px"
	 viewBox="0 0 100 51.5" enable-background="new 0 0 100 51.5" xml:space="preserve">
<path fill-rule="evenodd" clip-rule="evenodd" fill="#8551A0" d="M82.3,26.6c0.1-0.2,0.1-0.2,0.1-0.3c0-0.1,0-0.1,0-0.2
	c0.1-0.3,0.1-0.5,0-0.7c-0.1-0.2-0.1-0.2-0.1-0.3c0-0.1,0-0.1-0.1-0.2c-0.2-0.2-0.2-0.2-0.3-0.3L66.9,9.4c-0.6-0.6-1.6-0.6-2.2,0
	c-0.6,0.6-0.6,1.6,0,2.2l12.6,12.6H19c-0.9,0-1.5,0.7-1.5,1.5c0,0.4,0.2,0.8,0.4,1.1c0.3,0.3,0.7,0.5,1.1,0.4l58.4,0L64.8,39.9
	c-0.6,0.6-0.6,1.6,0,2.2c0.6,0.6,1.6,0.6,2.2,0l15.2-15.2C82.2,26.8,82.3,26.7,82.3,26.6"/>
</svg>
