<?xml version="1.0" encoding="utf-8"?>
<!-- Generator: Adobe Illustrator 18.0.0, SVG Export Plug-In . SVG Version: 6.00 Build 0)  -->
<!DOCTYPE svg PUBLIC "-//W3C//DTD SVG 1.1//EN" "http://www.w3.org/Graphics/SVG/1.1/DTD/svg11.dtd">
<svg version="1.1" id="Layer_1" xmlns="http://www.w3.org/2000/svg" xmlns:xlink="http://www.w3.org/1999/xlink" x="0px" y="0px"
	 viewBox="0 0 655 155.5" enable-background="new 0 0 655 155.5" xml:space="preserve">
<g>
	<g>
		<g>
			<path fill="#EF463F" d="M67,13.2c0.5,0,0.6-0.3,0.2-0.6L52,0.3c-0.4-0.3-1.1-0.4-1.6,0L33.2,12.6c-0.4,0.3-0.4,0.6,0.2,0.6H67z"
				/>
		</g>
		<g>
			<path fill="#EF463F" d="M83.5,25.7c-0.4-0.3-0.8-0.2-0.8,0.4v14.3c0,0.6-0.4,1.3-0.8,1.6l-31.7,22c-0.5,0.3-1.2,0.3-1.7,0
				L17.7,44.1c-0.5-0.3-0.8-1-0.8-1.5V25.4c0-0.5-0.4-0.7-0.8-0.4L4.7,33.2c-0.4,0.3-0.8,1-0.8,1.6v55.6c0,0.6,0.5,1,1,1h35.2
				c0.5,0,1-0.4,1-1V78.7c0-0.6,0.5-1,1-1h11.5c0.5,0,1,0.4,1,1v11.7c0,0.6,0.5,1,1,1h37c0.6,0,1-0.4,1-1V34.8
				c0-0.6-0.4-1.3-0.8-1.6L83.5,25.7z"/>
		</g>
		<path fill="#EA3434" d="M0,31.5"/>
		<polygon fill="#EF463F" points="29,29.9 48,51.7 83.5,8.1 46.9,36.2 		"/>
	</g>
	<g>
		<g>
			<path fill="#40394A" d="M618.9,93.2v-6.9h-2.5v-0.6c0-0.2,0.1-0.5,0.3-0.6c0.2-0.2,0.4-0.3,0.6-0.3h5.9v1.5h-2.5v6.9H618.9z"/>
			<path fill="#40394A" d="M623.5,93.2v-7.5c0-0.2,0.1-0.5,0.3-0.6c0.2-0.2,0.4-0.3,0.6-0.3h1.7l1.7,6.4l1.7-6.4h2.6v8.4h-1.6v-6.8
				l-1.7,6.8h-1.8l-1.8-6.8v6.8H623.5z"/>
		</g>
		<path fill="#40394A" d="M139,43.7v7.6h-13.8V91h-8.9V51.3h-13.8v-7.6H139z"/>
		<path fill="#40394A" d="M165.1,77.1h-23c0,4.7,3.9,7,11.6,7c3.6,0,7.1-0.3,10.7-1v7c-3.1,0.7-7.1,1-12,1
			c-12.8,0-19.2-5.9-19.2-17.8c0-11.3,5.8-17,17.5-17C162.4,56.3,167.2,63.2,165.1,77.1z M142.1,70.6h14.7c0.3-5-2-7.5-7-7.5
			C145,63.2,142.5,65.7,142.1,70.6z"/>
		<path fill="#40394A" d="M169.1,91V56.3h6.9l1.1,4.4c4.3-3,8.6-4.4,12.9-4.4c8.1,0,12.2,4.3,12.2,12.9V91h-8.9V69.1
			c0-3.8-1.9-5.8-5.8-5.8c-3.1,0-6.3,1.5-9.5,4.4V91H169.1z"/>
		<path fill="#40394A" d="M206.1,80.2c0-7.1,5.1-10.7,15.3-10.7c3.1,0,5.8,0.2,8.2,0.7v-2.3c0-3.1-3.1-4.7-9.2-4.7
			c-3.8,0-7.7,0.6-11.5,1.7v-7c3.8-1.1,7.6-1.7,11.5-1.7c12,0,18,3.8,18,11.5V91h-4.5l-3.8-2.4c-3.1,1.6-6.3,2.4-9.8,2.4
			C210.8,91,206.1,87.4,206.1,80.2z M221.4,76.1c-4.3,0-6.4,1.3-6.4,4c0,2.7,1.8,4,5.4,4c3.6,0,6.7-0.9,9.2-2.7v-4.6
			C227.3,76.4,224.6,76.1,221.4,76.1z"/>
		<path fill="#40394A" d="M244.1,91V56.3h6.9l1.1,4.4c4.3-3,8.6-4.4,12.9-4.4c8.1,0,12.2,4.3,12.2,12.9V91h-8.9V69.1
			c0-3.8-1.9-5.8-5.8-5.8c-3.1,0-6.3,1.5-9.5,4.4V91H244.1z"/>
		<path fill="#40394A" d="M282.8,50.6h6.6l1.3,5.6h8.2v7h-7.2v16c0,3.2,1.4,4.9,4.3,4.9h3v7h-7.2c-5.9,0-8.9-3.1-8.9-9.4V50.6z"/>
		<path fill="#40394A" d="M337.8,43.7v7.6h-22.7v11.9h21.5V71H315v12.4h23.2V91h-32V43.7H337.8z"/>
		<path fill="#40394A" d="M340,56.3h9.4l8.6,24.3l8.9-24.3h9.4L361.9,91h-8.5L340,56.3z"/>
		<path fill="#40394A" d="M376,80.2c0-7.1,5.1-10.7,15.3-10.7c3.1,0,5.8,0.2,8.2,0.7v-2.3c0-3.1-3.1-4.7-9.2-4.7
			c-3.8,0-7.7,0.6-11.5,1.7v-7c3.8-1.1,7.6-1.7,11.5-1.7c12,0,18,3.8,18,11.5V91h-4.5l-3.8-2.4c-3.1,1.6-6.3,2.4-9.8,2.4
			C380.8,91,376,87.4,376,80.2z M391.3,76.1c-4.3,0-6.4,1.3-6.4,4c0,2.7,1.8,4,5.4,4c3.6,0,6.7-0.9,9.2-2.7v-4.6
			C397.3,76.4,394.5,76.1,391.3,76.1z"/>
		<path fill="#40394A" d="M422.9,43.7V91H414V43.7H422.9z"/>
		<path fill="#40394A" d="M461.6,56.3V91h-6.9l-1.1-4.4c-4.3,3-8.6,4.4-12.9,4.4c-8.1,0-12.1-4.3-12.1-12.9V56.3h8.9v21.9
			c0,3.8,1.9,5.8,5.8,5.8c3.1,0,6.3-1.5,9.5-4.4V56.3H461.6z"/>
		<path fill="#40394A" d="M465.6,80.2c0-7.1,5.1-10.7,15.3-10.7c3.1,0,5.8,0.2,8.2,0.7v-2.3c0-3.1-3.1-4.7-9.2-4.7
			c-3.8,0-7.7,0.6-11.5,1.7v-7c3.8-1.1,7.6-1.7,11.5-1.7c12,0,18,3.8,18,11.5V91h-4.5l-3.8-2.4c-3.1,1.6-6.3,2.4-9.8,2.4
			C470.3,91,465.6,87.4,465.6,80.2z M480.9,76.1c-4.3,0-6.4,1.3-6.4,4c0,2.7,1.8,4,5.4,4c3.6,0,6.7-0.9,9.2-2.7v-4.6
			C486.8,76.4,484.1,76.1,480.9,76.1z"/>
		<path fill="#40394A" d="M503.6,50.6h6.6l1.3,5.6h8.2v7h-7.2v16c0,3.2,1.4,4.9,4.3,4.9h3v7h-7.2c-5.9,0-8.9-3.1-8.9-9.4V50.6z"/>
		<path fill="#40394A" d="M532.5,43.7v7h-8.9v-7H532.5z M532.5,56.3V91h-8.9V56.3H532.5z"/>
		<path fill="#40394A" d="M536,73.7c0-11.8,5.9-17.7,17.8-17.7c11.9,0,17.8,5.9,17.8,17.7c0,11.8-5.9,17.7-17.8,17.7
			C542,91.3,536,85.4,536,73.7z M553.8,84.4c5.9,0,8.9-3.6,8.9-10.9c0-7.1-3-10.6-8.9-10.6c-5.9,0-8.9,3.5-8.9,10.6
			C544.9,80.8,547.8,84.4,553.8,84.4z"/>
		<path fill="#40394A" d="M575,91V56.3h6.9l1.1,4.4c4.3-3,8.6-4.4,12.9-4.4c8.1,0,12.2,4.3,12.2,12.9V91h-8.9V69.1
			c0-3.8-1.9-5.8-5.8-5.8c-3.1,0-6.3,1.5-9.5,4.4V91H575z"/>
		<g>
			<path fill="#40394A" d="M296.5,144.9h-5.6l-0.8-18.2l-0.1-4l0.1-2.3h-0.1c-0.7,2.1-1.5,4.2-2.5,6.3l-8.3,18.2h-5.5l-1.1-31.6h5
				l0.4,18.4c0,2-0.1,4.5-0.3,7.5h0.1c1.2-3.2,2.2-5.7,3.1-7.7l8.4-18.2h4.9l0.7,18.1l0.1,3.7l-0.1,4.1h0.2c0.4-1.3,0.9-2.7,1.5-4.3
				c0.6-1.6,1-2.7,1.3-3.3l7.7-18.3h5.3L296.5,144.9z"/>
			<path fill="#40394A" d="M317.8,145.3c-2.8,0-5.1-0.8-6.6-2.4c-1.6-1.6-2.4-3.8-2.4-6.7c0-2.9,0.6-5.5,1.7-8
				c1.1-2.5,2.6-4.4,4.5-5.7s4-2,6.4-2c2.3,0,4.1,0.5,5.4,1.6s1.9,2.5,1.9,4.4c0,2.6-1.2,4.7-3.6,6.2s-5.8,2.2-10.3,2.2h-0.9l0,0.7
				v0.6c0,1.6,0.4,2.9,1.2,3.8s2,1.4,3.6,1.4c1,0,2.1-0.1,3.1-0.4c1-0.3,2.2-0.7,3.6-1.4v4c-1.4,0.6-2.7,1.1-3.8,1.4
				C320.5,145.2,319.2,145.3,317.8,145.3z M321,124.4c-1.4,0-2.7,0.6-3.9,1.9c-1.2,1.2-2.1,2.9-2.6,4.9h0.6c2.7,0,4.8-0.4,6.4-1.2
				s2.3-1.9,2.3-3.3c0-0.7-0.2-1.3-0.7-1.7C322.6,124.6,322,124.4,321,124.4z"/>
			<path fill="#40394A" d="M341.1,113.3l-3.3,11.4h-3.3l1.6-11.4H341.1z"/>
			<path fill="#40394A" d="M345.4,144.9l-2.8-23.9h5l1.2,12.9c0.2,2.3,0.3,4.4,0.3,6.4h0.2c0.4-1.1,0.9-2.3,1.5-3.6s1.1-2.3,1.4-2.9
				l6.7-12.9h5.4l-12.9,23.9H345.4z"/>
			<path fill="#40394A" d="M373,145.3c-2.8,0-5.1-0.8-6.6-2.4c-1.6-1.6-2.4-3.8-2.4-6.7c0-2.9,0.6-5.5,1.7-8
				c1.1-2.5,2.6-4.4,4.5-5.7s4-2,6.4-2c2.3,0,4.1,0.5,5.4,1.6s1.9,2.5,1.9,4.4c0,2.6-1.2,4.7-3.6,6.2s-5.8,2.2-10.3,2.2h-0.9l0,0.7
				v0.6c0,1.6,0.4,2.9,1.2,3.8s2,1.4,3.6,1.4c1,0,2.1-0.1,3.1-0.4c1-0.3,2.2-0.7,3.6-1.4v4c-1.4,0.6-2.7,1.1-3.8,1.4
				C375.7,145.2,374.4,145.3,373,145.3z M376.3,124.4c-1.4,0-2.7,0.6-3.9,1.9c-1.2,1.2-2.1,2.9-2.6,4.9h0.6c2.7,0,4.8-0.4,6.4-1.2
				s2.3-1.9,2.3-3.3c0-0.7-0.2-1.3-0.7-1.7C377.9,124.6,377.2,124.4,376.3,124.4z"/>
			<path fill="#40394A" d="M414.1,120.5c3.2,0,5,1.7,5.5,5.1h0.2c1.1-1.7,2.3-2.9,3.7-3.8c1.4-0.9,2.8-1.3,4.3-1.3
				c1.9,0,3.4,0.6,4.4,1.7c1,1.1,1.5,2.7,1.5,4.7c0,0.9-0.2,2.2-0.5,3.9l-3,14.1h-5.1l3.1-14.5c0.3-1.4,0.4-2.3,0.4-2.9
				c0-1.9-0.9-2.8-2.6-2.8c-1.6,0-3,0.9-4.4,2.7c-1.3,1.8-2.3,4.2-3,7.1l-2.2,10.4h-5.1l3.1-14.5c0.2-1.2,0.4-2.1,0.4-2.7
				c0-1.9-0.8-2.9-2.5-2.9c-1.6,0-3.1,0.9-4.4,2.7c-1.3,1.8-2.3,4.3-3,7.3l-2.1,10.1h-5.1l5.1-23.9h4l-0.5,4.4h0.2
				C408.7,122.2,411.2,120.5,414.1,120.5z"/>
			<path fill="#40394A" d="M444.7,145.3c-2,0-3.6-0.7-4.8-2.2c-1.2-1.5-1.8-3.5-1.8-6.2c0-2.9,0.5-5.6,1.5-8.2c1-2.5,2.4-4.5,4.1-6
				c1.8-1.5,3.7-2.2,5.8-2.2c1.4,0,2.6,0.3,3.6,1s1.8,1.6,2.4,2.9h0.2l1.3-3.4h3.9l-5.1,23.9h-3.9l0.5-3.8h-0.1
				C449.9,143.9,447.4,145.3,444.7,145.3z M446.5,141.2c1.2,0,2.3-0.6,3.5-1.7c1.1-1.1,2.1-2.6,2.8-4.5c0.7-1.9,1.1-3.9,1.1-6.1
				c0-1.3-0.3-2.3-1-3.1c-0.7-0.8-1.6-1.2-2.7-1.2c-1.2,0-2.4,0.6-3.5,1.7c-1.1,1.1-1.9,2.6-2.6,4.5c-0.6,1.9-1,3.9-1,5.9
				c0,1.5,0.3,2.6,0.9,3.3C444.7,140.9,445.5,141.2,446.5,141.2z"/>
			<path fill="#40394A" d="M475.1,120.5c2.6,0,4.5,1.3,5.8,3.8h0.2c0.2-2.1,0.5-3.9,0.8-5.4l1.6-7.7h5l-7.1,33.6h-4l0.4-3.8h-0.2
				c-1.3,1.5-2.5,2.6-3.7,3.3c-1.2,0.6-2.4,1-3.8,1c-2.1,0-3.7-0.7-4.8-2.2c-1.2-1.5-1.8-3.5-1.8-6.2c0-3,0.5-5.7,1.5-8.3
				c1-2.6,2.4-4.6,4.1-6C471.1,121.3,473,120.5,475.1,120.5z M472.3,141.2c1.2,0,2.4-0.6,3.5-1.8c1.2-1.2,2.1-2.7,2.8-4.6
				c0.7-1.9,1-3.8,1-5.8c0-1.3-0.3-2.4-0.9-3.2c-0.6-0.8-1.6-1.2-2.9-1.2c-1.2,0-2.4,0.6-3.4,1.7c-1.1,1.1-1.9,2.6-2.6,4.6
				s-1,3.9-1,5.9C468.9,139.8,470,141.2,472.3,141.2z"/>
			<path fill="#40394A" d="M498.7,145.3c-2.8,0-5.1-0.8-6.6-2.4c-1.6-1.6-2.4-3.8-2.4-6.7c0-2.9,0.6-5.5,1.7-8
				c1.1-2.5,2.6-4.4,4.5-5.7c1.9-1.3,4-2,6.4-2c2.3,0,4.1,0.5,5.4,1.6s1.9,2.5,1.9,4.4c0,2.6-1.2,4.7-3.6,6.2s-5.8,2.2-10.3,2.2
				h-0.9l0,0.7v0.6c0,1.6,0.4,2.9,1.2,3.8s2,1.4,3.6,1.4c1,0,2.1-0.1,3.1-0.4c1-0.3,2.2-0.7,3.6-1.4v4c-1.4,0.6-2.7,1.1-3.8,1.4
				C501.4,145.2,500.1,145.3,498.7,145.3z M501.9,124.4c-1.4,0-2.7,0.6-3.9,1.9c-1.2,1.2-2.1,2.9-2.6,4.9h0.6c2.7,0,4.8-0.4,6.4-1.2
				s2.3-1.9,2.3-3.3c0-0.7-0.2-1.3-0.7-1.7C503.5,124.6,502.9,124.4,501.9,124.4z"/>
			<path fill="#40394A" d="M528.5,144.9h-5.1l5.1-23.9h5.1L528.5,144.9z M529.5,115.1c0-1,0.3-1.8,0.8-2.4c0.6-0.6,1.4-0.9,2.4-0.9
				c0.8,0,1.4,0.2,1.9,0.6c0.5,0.4,0.7,1,0.7,1.7c0,1-0.3,1.8-0.9,2.4c-0.6,0.6-1.3,0.9-2.3,0.9c-0.8,0-1.4-0.2-1.9-0.6
				C529.7,116.5,529.5,115.9,529.5,115.1z"/>
			<path fill="#40394A" d="M544.4,141.2c1,0,2.1-0.2,3.3-0.7v3.8c-0.5,0.2-1.2,0.5-2.1,0.6s-1.7,0.3-2.6,0.3c-4,0-5.9-1.8-5.9-5.3
				c0-0.8,0.1-1.8,0.3-2.8l2.6-12.3h-3.5l0.5-2.4l4.1-1.8l2.8-5h3.2l-1.1,5.3h6l-0.8,3.8h-6l-2.6,12.4c-0.2,0.8-0.3,1.5-0.3,2
				c0,0.6,0.2,1.1,0.5,1.5C543.1,141,543.6,141.2,544.4,141.2z"/>
			<path fill="#40394A" d="M573.4,145.3c-2.8,0-5.1-0.8-6.6-2.4c-1.6-1.6-2.4-3.8-2.4-6.7c0-2.9,0.6-5.5,1.7-8
				c1.1-2.5,2.6-4.4,4.5-5.7s4-2,6.4-2c2.3,0,4.1,0.5,5.4,1.6s1.9,2.5,1.9,4.4c0,2.6-1.2,4.7-3.6,6.2s-5.8,2.2-10.3,2.2h-0.9l0,0.7
				v0.6c0,1.6,0.4,2.9,1.2,3.8s2,1.4,3.6,1.4c1,0,2.1-0.1,3.1-0.4c1-0.3,2.2-0.7,3.6-1.4v4c-1.4,0.6-2.7,1.1-3.8,1.4
				C576.1,145.2,574.8,145.3,573.4,145.3z M576.6,124.4c-1.4,0-2.7,0.6-3.9,1.9c-1.2,1.2-2.1,2.9-2.6,4.9h0.6c2.7,0,4.8-0.4,6.4-1.2
				s2.3-1.9,2.3-3.3c0-0.7-0.2-1.3-0.7-1.7C578.2,124.6,577.5,124.4,576.6,124.4z"/>
			<path fill="#40394A" d="M594.2,145.3c-2,0-3.6-0.7-4.8-2.2c-1.2-1.5-1.8-3.5-1.8-6.2c0-2.9,0.5-5.6,1.5-8.2c1-2.5,2.4-4.5,4.1-6
				c1.8-1.5,3.7-2.2,5.8-2.2c1.4,0,2.6,0.3,3.6,1s1.8,1.6,2.4,2.9h0.2l1.3-3.4h3.9l-5.1,23.9h-3.9l0.5-3.8h-0.1
				C599.4,143.9,596.9,145.3,594.2,145.3z M596,141.2c1.2,0,2.3-0.6,3.5-1.7c1.1-1.1,2.1-2.6,2.8-4.5c0.7-1.9,1.1-3.9,1.1-6.1
				c0-1.3-0.3-2.3-1-3.1c-0.7-0.8-1.6-1.2-2.7-1.2c-1.2,0-2.4,0.6-3.5,1.7c-1.1,1.1-1.9,2.6-2.6,4.5c-0.6,1.9-1,3.9-1,5.9
				c0,1.5,0.3,2.6,0.9,3.3C594.2,140.9,595,141.2,596,141.2z"/>
			<path fill="#40394A" d="M628.1,137.5c0,2.5-0.9,4.4-2.6,5.8c-1.7,1.3-4.1,2-7.1,2c-2.7,0-5.1-0.5-7-1.4v-4.4
				c2.2,1.3,4.5,1.9,6.7,1.9c1.4,0,2.5-0.3,3.4-0.9c0.9-0.6,1.3-1.4,1.3-2.4c0-0.7-0.2-1.4-0.7-1.9c-0.5-0.5-1.5-1.2-3.1-2.1
				c-1.8-1-3.1-2-3.8-3c-0.7-1-1.1-2.2-1.1-3.6c0-2.2,0.8-4,2.3-5.3c1.5-1.3,3.6-1.9,6.2-1.9c2.8,0,5.3,0.6,7.5,1.8l-1.6,3.8
				c-2-1.1-3.9-1.6-5.8-1.6c-1.1,0-1.9,0.2-2.6,0.7c-0.7,0.5-1,1.1-1,2c0,0.6,0.2,1.2,0.7,1.7s1.4,1.2,2.9,1.9
				c1.5,0.9,2.6,1.6,3.2,2.2c0.6,0.6,1.1,1.3,1.4,2C627.9,135.8,628.1,136.6,628.1,137.5z"/>
			<path fill="#40394A" d="M633.3,121h5l1.4,11.5c0.1,0.9,0.2,2.2,0.3,3.8s0.2,2.9,0.2,3.9h0.1c1.2-3.1,2.2-5.4,2.9-6.8l6.3-12.4
				h5.5l-14.9,27.7c-1.3,2.4-2.7,4.1-4.2,5.2s-3.3,1.7-5.4,1.7c-1.1,0-2.1-0.1-3.1-0.4v-4.1c1.1,0.2,2,0.3,2.7,0.3
				c1.1,0,2-0.3,2.9-0.9s1.8-1.7,2.7-3.4l1.1-2L633.3,121z"/>
		</g>
	</g>
</g>
</svg>
