<?xml version="1.0" encoding="utf-8"?>
<!-- Generator: Adobe Illustrator 18.0.0, SVG Export Plug-In . SVG Version: 6.00 Build 0)  -->
<!DOCTYPE svg PUBLIC "-//W3C//DTD SVG 1.1//EN" "http://www.w3.org/Graphics/SVG/1.1/DTD/svg11.dtd">
<svg version="1.1" id="Layer_1" xmlns="http://www.w3.org/2000/svg" xmlns:xlink="http://www.w3.org/1999/xlink" x="0px" y="0px"
	 viewBox="0 0 651.2 157.3" enable-background="new 0 0 651.2 157.3" xml:space="preserve">
<path fill="#EF463F" d="M63.2,13.2c0.5,0,0.6-0.3,0.2-0.6L48.1,0.3c-0.4-0.3-1.1-0.4-1.6,0L29.4,12.6c-0.4,0.3-0.4,0.6,0.2,0.6H63.2
	z"/>
<path fill="#EF463F" d="M79.6,25.7c-0.4-0.3-0.8-0.2-0.8,0.4v14.3c0,0.5-0.4,1.3-0.8,1.6l-31.7,22c-0.5,0.3-1.2,0.3-1.7,0L13.8,44.1
	c-0.5-0.3-0.8-1-0.8-1.5V25.4c0-0.6-0.4-0.7-0.8-0.4L0.8,33.2c-0.4,0.3-0.8,1-0.8,1.6v55.6c0,0.6,0.4,1,1,1h35.2c0.5,0,1-0.4,1-1
	V78.7c0-0.6,0.5-1,1-1h11.5c0.5,0,1,0.4,1,1v11.7c0,0.6,0.5,1,1,1h37c0.5,0,1-0.4,1-1V34.8c0-0.6-0.3-1.3-0.8-1.6L79.6,25.7z"/>
<polygon fill="#EF463F" points="25.1,29.9 44.1,51.7 79.6,8.1 43.1,36.2 "/>
<path fill="#40394A" d="M615.1,93.2v-6.9h-2.5v-0.6c0-0.2,0.1-0.5,0.3-0.6c0.2-0.2,0.4-0.3,0.6-0.3h5.9v1.5h-2.5v6.9H615.1z"/>
<path fill="#40394A" d="M619.7,93.2v-7.5c0-0.2,0.1-0.5,0.3-0.6c0.2-0.2,0.4-0.3,0.6-0.3h1.7l1.7,6.4l1.7-6.4h2.6v8.4h-1.6v-6.8
	l-1.7,6.8H623l-1.8-6.8v6.8H619.7z"/>
<polygon fill="#40394A" points="135.1,43.7 135.1,51.3 121.4,51.3 121.4,91 112.5,91 112.5,51.3 98.7,51.3 98.7,43.7 "/>
<path fill="#40394A" d="M161.3,77.1h-23c0,4.7,3.9,7,11.6,7c3.6,0,7.1-0.3,10.7-1v7c-3.1,0.7-7.1,1-12,1c-12.8,0-19.2-5.9-19.2-17.8
	c0-11.3,5.8-17,17.5-17C158.6,56.3,163.4,63.2,161.3,77.1 M138.2,70.6h14.7c0.3-5-2-7.5-7-7.5C141.2,63.2,138.6,65.7,138.2,70.6"/>
<path fill="#40394A" d="M165.2,91V56.3h6.9l1.1,4.4c4.3-3,8.6-4.4,12.9-4.4c8.1,0,12.2,4.3,12.2,12.9V91h-8.9V69.1
	c0-3.8-1.9-5.8-5.8-5.8c-3.1,0-6.3,1.5-9.5,4.4V91H165.2z"/>
<path fill="#40394A" d="M202.2,80.2c0-7.1,5.1-10.7,15.3-10.7c3.1,0,5.8,0.2,8.2,0.7v-2.3c0-3.1-3.1-4.7-9.2-4.7
	c-3.8,0-7.7,0.6-11.5,1.7v-7c3.8-1.1,7.6-1.7,11.5-1.7c12,0,18,3.8,18,11.5V91h-4.5l-3.8-2.4c-3.1,1.6-6.3,2.4-9.8,2.4
	C207,91,202.2,87.4,202.2,80.2 M217.5,76.1c-4.3,0-6.4,1.3-6.4,4c0,2.7,1.8,4,5.4,4c3.6,0,6.7-0.9,9.2-2.7v-4.6
	C223.5,76.4,220.7,76.1,217.5,76.1"/>
<path fill="#40394A" d="M240.2,91V56.3h6.9l1.1,4.4c4.3-3,8.6-4.4,12.9-4.4c8.1,0,12.2,4.3,12.2,12.9V91h-8.9V69.1
	c0-3.8-1.9-5.8-5.8-5.8c-3.1,0-6.3,1.5-9.5,4.4V91H240.2z"/>
<path fill="#40394A" d="M278.9,50.6h6.6l1.3,5.6h8.2v7h-7.2v16c0,3.2,1.4,4.9,4.3,4.9h3v7h-7.2c-5.9,0-8.9-3.1-8.9-9.4V50.6z"/>
<polygon fill="#40394A" points="333.9,43.7 333.9,51.2 311.3,51.2 311.3,63.2 332.8,63.2 332.8,71 311.2,71 311.2,83.4 334.4,83.4 
	334.4,91 302.4,91 302.4,43.7 "/>
<polygon fill="#40394A" points="336.2,56.3 345.6,56.3 354.1,80.6 363,56.3 372.4,56.3 358.1,91 349.6,91 "/>
<path fill="#40394A" d="M372.2,80.2c0-7.1,5.1-10.7,15.3-10.7c3.1,0,5.8,0.2,8.2,0.7v-2.3c0-3.1-3.1-4.7-9.2-4.7
	c-3.8,0-7.7,0.6-11.5,1.7v-7c3.8-1.1,7.6-1.7,11.5-1.7c12,0,18,3.8,18,11.5V91h-4.5l-3.8-2.4c-3.1,1.6-6.3,2.4-9.8,2.4
	C376.9,91,372.2,87.4,372.2,80.2 M387.5,76.1c-4.3,0-6.4,1.3-6.4,4c0,2.7,1.8,4,5.4,4c3.6,0,6.7-0.9,9.2-2.7v-4.6
	C393.4,76.4,390.7,76.1,387.5,76.1"/>
<rect x="410.2" y="43.7" fill="#40394A" width="8.9" height="47.4"/>
<path fill="#40394A" d="M457.8,56.3V91h-6.9l-1.1-4.4c-4.3,3-8.6,4.4-12.9,4.4c-8.1,0-12.1-4.3-12.1-12.9V56.3h8.9v21.9
	c0,3.8,1.9,5.8,5.8,5.8c3.1,0,6.3-1.5,9.5-4.4V56.3H457.8z"/>
<path fill="#40394A" d="M461.7,80.2c0-7.1,5.1-10.7,15.3-10.7c3.1,0,5.8,0.2,8.2,0.7v-2.3c0-3.1-3.1-4.7-9.2-4.7
	c-3.8,0-7.7,0.6-11.5,1.7v-7c3.8-1.1,7.6-1.7,11.5-1.7c12,0,18,3.8,18,11.5V91h-4.5l-3.8-2.4c-3.1,1.6-6.3,2.4-9.8,2.4
	C466.5,91,461.7,87.4,461.7,80.2 M477,76.1c-4.3,0-6.4,1.3-6.4,4c0,2.7,1.8,4,5.4,4c3.6,0,6.7-0.9,9.2-2.7v-4.6
	C483,76.4,480.2,76.1,477,76.1"/>
<path fill="#40394A" d="M499.7,50.6h6.6l1.3,5.6h8.2v7h-7.2v16c0,3.2,1.4,4.9,4.3,4.9h3v7h-7.2c-5.9,0-8.9-3.1-8.9-9.4V50.6z"/>
<path fill="#40394A" d="M528.7,50.6h-8.9v-7h8.9V50.6z M528.7,91h-8.9V56.3h8.9V91z"/>
<path fill="#40394A" d="M532.1,73.7c0-11.8,5.9-17.7,17.8-17.7c11.9,0,17.8,5.9,17.8,17.7c0,11.8-5.9,17.7-17.8,17.7
	C538.1,91.3,532.2,85.4,532.1,73.7 M549.9,84.4c5.9,0,8.9-3.6,8.9-10.9c0-7.1-3-10.6-8.9-10.6c-5.9,0-8.9,3.5-8.9,10.6
	C541,80.8,544,84.4,549.9,84.4"/>
<path fill="#40394A" d="M571.2,91V56.3h6.9l1.1,4.4c4.3-3,8.6-4.4,12.9-4.4c8.1,0,12.2,4.3,12.2,12.9V91h-8.9V69.1
	c0-3.8-1.9-5.8-5.8-5.8c-3.1,0-6.3,1.5-9.5,4.4V91H571.2z"/>
<text transform="matrix(1 0 0 1 264.1748 144.8985)" fill="#40394A" font-family="'OpenSans-SemiboldItalic'" font-size="44.2888">We&apos;ve made it easy</text>
</svg>
